# xmcd CD database file
#
# Track frame offsets:
#	150
#	15575
#	30155
#	39902
#	52137
#	78212
#	89237
#	102535
#	108427
#	122915
#	132942
#	146565
#	154292
#	168727
#	176875
#	188247
#	192557
#	199337
#	210872
#	219395
#	228825
#	238027
#	247182
#	257322
#	264412
#	279022
#	288570
#
# Disc length: 4124 seconds
#
# Revision: 3
# Processed by: cddbd v1.5.2PL0 Copyright (c) Steve Scherf et al.
# Submitted via: CDex 1.70beta2
#
DISCID=8b101a1b
DTITLE=Frank Sinatra - Frank Sinatra in Hollywood (1940-1964) - Disc 1
DYEAR=2002
DGENRE=Jazz
TTITLE0=Dolores (Outtake)
TTITLE1=I'll Never Smile Again
TTITLE2=Radio Spot for "Ship Ahoy"
TTITLE3=Moonlight Bay
TTITLE4=Poor You
TTITLE5=The Last Call For Love
TTITLE6=Tommy Dorsey and His Orchestra Feat. Frank Sinatra - Blue Skies (Outtake)
TTITLE7=Finale: The Last Call for Love
TTITLE8=Night And Day
TTITLE9=I Couldn't Sleep a Wink Last Night
TTITLE10=The Music Stopped
TTITLE11=I Saw You First
TTITLE12=A Lovely Way to Spend an Evening (Orchestra)
TTITLE13=A Lovely Way to Spend an Evening (Piano and Vocal)
TTITLE14=You're On Your Own
TTITLE15=You're On Your Own (reprise)
TTITLE16=Finale: I Saw You First - lovely Way to Spend an Evening - The Music Stopped
TTITLE17=Stardust
TTITLE18=(There'll Be A) Hot Time In The Town of Berlin
TTITLE19=Saturday Night (Is The Loneliest Night Of The Week)
TTITLE20=Come Out, Come Out Wherever You Are
TTITLE21=As Long As There's Music
TTITLE22=Where Does Love Begin?
TTITLE23=Some Other Time
TTITLE24=Some Other Time (Feat. Gloria DeHaven)
TTITLE25=And Then You Kissed Me (Outtake)
TTITLE26=Finale: As Long As There's Music - Some Other Time - As Long As There's Music - Where Does Love Begin?
EXTD=YEAR: 2002
EXTT0=
EXTT1=
EXTT2=
EXTT3=
EXTT4=
EXTT5=
EXTT6=
EXTT7=
EXTT8=
EXTT9=
EXTT10=
EXTT11=
EXTT12=
EXTT13=
EXTT14=
EXTT15=
EXTT16=
EXTT17=
EXTT18=
EXTT19=
EXTT20=
EXTT21=
EXTT22=
EXTT23=
EXTT24=
EXTT25=
EXTT26=
PLAYORDER=
